<svg width="65" height="81" viewBox="0 0 65 81" fill="none" xmlns="http://www.w3.org/2000/svg">
<path fill-rule="evenodd" clip-rule="evenodd" d="M58.0162 34.9102C61.8537 34.4417 65 37.6264 65 41.4924V63.2675C65 67.1335 61.8537 70.2167 58.0162 70.6853C48.7352 71.8184 40.2298 75.2566 32.5 81C24.7701 75.2566 16.2647 71.8184 6.98379 70.6853C3.14629 70.2167 0 67.1335 0 63.2675V41.4924C0 37.6264 3.14629 34.4417 6.98379 34.9102C16.2648 36.0433 24.7702 39.4815 32.5 45.2249C40.2298 39.4815 48.7352 36.0433 58.0162 34.9102ZM57.7777 42.1626L56.6846 42.3354C49.5153 43.5594 42.9276 46.4209 36.8333 50.949L32.5 54.1688L28.1667 50.949C22.0724 46.4209 15.4847 43.5594 8.31543 42.3352L7.22228 42.1626V63.5131L8.00854 63.6015C16.3874 64.6439 24.2376 67.3511 31.4988 71.7035L32.4964 72.3172L33.5012 71.7035C40.7624 67.3511 48.6125 64.6439 56.9915 63.6015L57.7777 63.5131V42.1626ZM32.5 0C40.4774 0 46.9444 6.40679 46.9444 14.3099C46.9444 22.2131 37.9167 36.45 32.5 39.42C25.7292 35.775 18.0556 22.2132 18.0556 14.3099C18.0556 6.40679 24.5226 0 32.5 0ZM32.5 7.15505C28.5113 7.15505 25.2777 10.3584 25.2777 14.3099C25.2777 18.2615 28.5113 21.465 32.5 21.465C36.4887 21.465 39.7223 18.2615 39.7223 14.3099C39.7223 10.3584 36.4887 7.15505 32.5 7.15505Z" fill="white"/>
</svg>
